<svg xmlns="http://www.w3.org/2000/svg" width="512" height="512" viewBox="0 0 512 512">
  <path id="facebook-icon" d="M449.446,0A62.584,62.584,0,0,1,512,62.554V449.446A62.584,62.584,0,0,1,449.446,512H342.978V319.085h66.6l12.672-82.621H342.978V182.847c0-22.6,11.073-44.636,46.58-44.636H425.6V67.871s-32.71-5.582-63.982-5.582c-65.288,0-107.96,39.569-107.96,111.2v62.971H181.085v82.621h72.573V512H62.554A62.584,62.584,0,0,1,0,449.446V62.554A62.584,62.584,0,0,1,62.554,0H449.446Z" fill-rule="evenodd"/>
</svg>
