<svg xmlns="http://www.w3.org/2000/svg" width="48" height="48" viewBox="0 0 48 48">
  <g id="google-plus-icon" transform="translate(-1 -1)">
    <path id="Path_112" data-name="Path 112" d="M45,1H5A4.012,4.012,0,0,0,1,5V45a4.012,4.012,0,0,0,4,4H45a4.012,4.012,0,0,0,4-4V5A4.012,4.012,0,0,0,45,1Z"/>
    <g id="G_x2B_">
      <path id="_x2B__1_" d="M40,23H36V19H34v4H30v2h4v4h2V25h4Z" fill="#fff"/>
      <path id="g_1_" d="M25,27s-2-1.2-2-2a2.984,2.984,0,0,1,1-3c1.5-1.2,3-3,3-5,0-2.3-1-5-3-6h3l2.4-1H20c-4.2,0-8,3.3-8,7s2.8,6.6,7.1,6.6H20a3.371,3.371,0,0,0-.5,1.7A4.338,4.338,0,0,0,21,28H19c-5.2,0-9,2.6-9,6s4.9,6,10,6c5.9,0,10-3,10-7C30,30.3,27.5,28.7,25,27Zm-4-4c-2.4,0-5.6-2.9-6-6s1.6-6.1,4-6,4.6,2.9,5,6.1C24.4,20.2,23,23,21,23ZM20,38c-3.6,0-7-1.3-7-4s3.4-5,7-5h2a7.211,7.211,0,0,1,4,2,4.487,4.487,0,0,1,1,3C27,37,25,38,20,38Z" fill="#fff"/>
    </g>
  </g>
</svg>
